<?xml version="1.0"?>
<svg xmlns="http://www.w3.org/2000/svg" xmlns:xlink="http://www.w3.org/1999/xlink" xmlns:svgjs="http://svgjs.com/svgjs" version="1.1" width="512" height="512" x="0" y="0" viewBox="0 0 64 64" style="enable-background:new 0 0 512 512" xml:space="preserve" class=""><g><g xmlns="http://www.w3.org/2000/svg" id="fingerprint"><path d="M4.1,35.95A.994.994,0,0,0,3,35.06a1.007,1.007,0,0,0-.89,1.1c.01.01.01.01.01.02A19.721,19.721,0,0,0,7.16,47.39c.01.02.02.03.03.05.01,0,.01,0,.01.01a1.029,1.029,0,0,0,.74.32,1.04,1.04,0,0,0,.67-.26,1.006,1.006,0,0,0,.33-.75,1.019,1.019,0,0,0-.27-.67A17.924,17.924,0,0,1,4.1,35.95Z" fill="#ffffff" data-original="#000000" style="" class=""/><path d="M3,33.08a1,1,0,0,0,1-1V22q0-.87.09-1.77a1,1,0,0,0-2-.19C2.03,20.69,2,21.35,2,22V32.08A1,1,0,0,0,3,33.08Z" fill="#ffffff" data-original="#000000" style="" class=""/><path d="M14.17,5.69a.978.978,0,0,0,.41-.09A18.032,18.032,0,0,1,25.64,4.37a1.01,1.01,0,0,0,1.18-.78,1,1,0,0,0-.77-1.18A20.384,20.384,0,0,0,22,2a19.843,19.843,0,0,0-8.25,1.78.989.989,0,0,0-.58.91,1.006,1.006,0,0,0,1,1Z" fill="#ffffff" data-original="#000000" style="" class=""/><path d="M3.59,17.2a.989.989,0,0,0,.3.04,1,1,0,0,0,.95-.69A18.218,18.218,0,0,1,11.33,7.5a.982.982,0,0,0,.4-.65,1.007,1.007,0,0,0-.19-.75,1.042,1.042,0,0,0-1.4-.21,20.148,20.148,0,0,0-7.2,10.05.789.789,0,0,0-.05.3A1.008,1.008,0,0,0,3.59,17.2Z" fill="#ffffff" data-original="#000000" style="" class=""/><path d="M29.23,5.51a17.955,17.955,0,0,1,5.49,3.76,18.162,18.162,0,0,1,2.82,3.65,1.012,1.012,0,0,0,.86.49.992.992,0,0,0,.87-1.5.01.01,0,0,0-.01-.01,20.058,20.058,0,0,0-9.23-8.22,1.021,1.021,0,0,0-1.32.51,1.2,1.2,0,0,0-.08.42A.993.993,0,0,0,29.23,5.51Z" fill="#ffffff" data-original="#000000" style="" class=""/><path d="M39.04,16.03a1.127,1.127,0,0,0,.05.32A18.015,18.015,0,0,1,40,22v5.88a1,1,0,0,0,2,0V22a19.9,19.9,0,0,0-1.01-6.28,1,1,0,0,0-1.26-.63A.987.987,0,0,0,39.04,16.03Z" fill="#ffffff" data-original="#000000" style="" class=""/><path d="M22.08,52A.213.213,0,0,1,22,52a17.873,17.873,0,0,1-10.52-3.4,1.023,1.023,0,0,0-1.39.23.987.987,0,0,0-.18.74,1.019,1.019,0,0,0,.4.66A19.834,19.834,0,0,0,22,54h.09a1,1,0,0,0,1-1A1.018,1.018,0,0,0,22.08,52Z" fill="#ffffff" data-original="#000000" style="" class=""/><path d="M7.87,16.85a1.023,1.023,0,0,0-1.24.68v.01A16.02,16.02,0,0,0,6,22v8.42a1,1,0,0,0,2,0V22a14.258,14.258,0,0,1,.55-3.91A1,1,0,0,0,7.87,16.85Z" fill="#ffffff" data-original="#000000" style="" class=""/><path d="M19.41,6.21A16.023,16.023,0,0,0,8.48,13.44a1.06,1.06,0,0,0-.16.54,1,1,0,0,0,.47.84.918.918,0,0,0,.53.16,1,1,0,0,0,.85-.46,14,14,0,0,1,9.56-6.34,1,1,0,0,0,.83-1.15A1.012,1.012,0,0,0,19.41,6.21Z" fill="#ffffff" data-original="#000000" style="" class=""/><path d="M15.21,47.42a1,1,0,0,0,0,.76,1.019,1.019,0,0,0,.53.55,16.032,16.032,0,0,0,13.11-.27.993.993,0,0,0,.57-.9.925.925,0,0,0-.09-.43A1.027,1.027,0,0,0,28,46.65a14.107,14.107,0,0,1-11.47.24A1.014,1.014,0,0,0,15.21,47.42Z" fill="#ffffff" data-original="#000000" style="" class=""/><path d="M34.89,14.26a1,1,0,0,0,.25-1.38c0-.01,0-.01-.01-.01a16.562,16.562,0,0,0-1.82-2.18A16.046,16.046,0,0,0,23.9,6.11a1.016,1.016,0,0,0-1.11.88.487.487,0,0,0-.01.12,1,1,0,0,0,.88.99,14.253,14.253,0,0,1,9.84,5.91.979.979,0,0,0,.81.43A1,1,0,0,0,34.89,14.26Z" fill="#ffffff" data-original="#000000" style="" class=""/><path d="M37,30.78a1,1,0,0,0,1-1V22a15.838,15.838,0,0,0-.84-5.12,1,1,0,0,0-1.95.32.948.948,0,0,0,.06.32A14.112,14.112,0,0,1,36,22v7.78A1,1,0,0,0,37,30.78Z" fill="#ffffff" data-original="#000000" style="" class=""/><path d="M11.9,46.4a.978.978,0,0,0,.63.23,1.007,1.007,0,0,0,.78-.37.917.917,0,0,0,.22-.63,1,1,0,0,0-.36-.78,12.077,12.077,0,0,1-1.06-.96,13.923,13.923,0,0,1-4.1-9.29.976.976,0,0,0-1.04-.95.99.99,0,0,0-.95,1.02c-.01.01-.01.01-.01.02A15.985,15.985,0,0,0,11.9,46.4Z" fill="#ffffff" data-original="#000000" style="" class=""/><path d="M11.87,17.59a1.025,1.025,0,0,0-1.27.64A11.994,11.994,0,0,0,10,22v8.12a1,1,0,1,0,2,0V22a10.019,10.019,0,0,1,.5-3.14.892.892,0,0,0,.05-.32A1,1,0,0,0,11.87,17.59Z" fill="#ffffff" data-original="#000000" style="" class=""/><path d="M17.12,42.73A10.02,10.02,0,0,1,12,34.04h-.05L12,34a1,1,0,0,0-2,0v.05a12.023,12.023,0,0,0,6.15,10.43.977.977,0,0,0,.48.12,1,1,0,0,0,.97-1.27A1.022,1.022,0,0,0,17.12,42.73Z" fill="#ffffff" data-original="#000000" style="" class=""/><path d="M23.58,12.12a1.006,1.006,0,0,0,1.15-.83.757.757,0,0,0,.01-.15,1.008,1.008,0,0,0-.84-.99,12.013,12.013,0,0,0-11.29,4.38,1,1,0,0,0,.16,1.4,1.02,1.02,0,0,0,.62.22.986.986,0,0,0,.78-.38A10,10,0,0,1,22,12,10.311,10.311,0,0,1,23.58,12.12Z" fill="#ffffff" data-original="#000000" style="" class=""/><path d="M33,22.98a1,1,0,0,0,1-1,12.036,12.036,0,0,0-6.13-10.45,1.023,1.023,0,0,0-1.36.39,1,1,0,0,0,.38,1.36A10.019,10.019,0,0,1,32,21.98,1,1,0,0,0,33,22.98Z" fill="#ffffff" data-original="#000000" style="" class=""/><path d="M29,25.2a1,1,0,0,0-1,1V34a6.042,6.042,0,0,1-1.43,3.89.969.969,0,0,0-.24.65,1,1,0,0,0,.35.76,1.021,1.021,0,0,0,.65.24,1.011,1.011,0,0,0,.76-.35A8.029,8.029,0,0,0,30,34V26.2A1,1,0,0,0,29,25.2Z" fill="#ffffff" data-original="#000000" style="" class=""/><path d="M22,14a8.511,8.511,0,0,0-2.01.25,1,1,0,0,0,.49,1.94c.01.01.01,0,.01,0A5.9,5.9,0,0,1,22,16a6.018,6.018,0,0,1,6,5.97,1,1,0,0,0,1,.99h.01A1.007,1.007,0,0,0,30,21.95,8.026,8.026,0,0,0,22,14Z" fill="#ffffff" data-original="#000000" style="" class=""/><path d="M24.05,41.73a1,1,0,0,0,.71-1.22,1.015,1.015,0,0,0-1.22-.71A6.138,6.138,0,0,1,22,40a6.023,6.023,0,0,1-6-5.93V34a1,1,0,0,0-2,0v.09A8.031,8.031,0,0,0,22,42,7.848,7.848,0,0,0,24.05,41.73Z" fill="#ffffff" data-original="#000000" style="" class=""/><path d="M15.94,16.78A7.991,7.991,0,0,0,14,22v7.75a1,1,0,1,0,2,0V22a6.046,6.046,0,0,1,1.45-3.92.978.978,0,0,0,.25-.65,1.047,1.047,0,0,0-.35-.76A1.036,1.036,0,0,0,15.94,16.78Z" fill="#ffffff" data-original="#000000" style="" class=""/><path d="M26,34V27.97a1,1,0,0,0-2,0V34a2.008,2.008,0,0,1-1.98,2H22a.99.99,0,0,0-1,1,.991.991,0,0,0,1.01,1h.04A4.021,4.021,0,0,0,26,34Z" fill="#ffffff" data-original="#000000" style="" class=""/><path d="M26,22a4,4,0,0,0-7.72-1.47,1,1,0,1,0,1.86.74A1.984,1.984,0,0,1,22,20a2.006,2.006,0,0,1,2,2v2.4a1,1,0,1,0,2,0Z" fill="#ffffff" data-original="#000000" style="" class=""/><path d="M20,24.42a1,1,0,0,0-2,0V34a3.954,3.954,0,0,0,.29,1.49,1,1,0,0,0,.93.63,1.156,1.156,0,0,0,.37-.07,1,1,0,0,0,.55-1.31A2.111,2.111,0,0,1,20,34V24.42Z" fill="#ffffff" data-original="#000000" style="" class=""/><path d="M46,30a15.783,15.783,0,0,0-5.3.92c-.05.02-.09.03-.14.05a15.886,15.886,0,0,0-4.04,2.17.92.92,0,0,0-.25.19,16.308,16.308,0,0,0-2.38,2.24A11.72,11.72,0,0,0,34,34V25.86a1,1,0,0,0-2,0V34a9.941,9.941,0,0,1-.5,3.12,1.257,1.257,0,0,0-.05.33,1.016,1.016,0,0,0,.53.86,16.74,16.74,0,0,0-.81,1.71,1,1,0,0,0-1.33.19,10.013,10.013,0,0,1-9.39,3.67l-.01.05v-.05a1.019,1.019,0,0,0-1.15.83c0,.05-.01.1-.01.15a.984.984,0,0,0,.85.99l.01.01A12.622,12.622,0,0,0,22,46a11.932,11.932,0,0,0,8.38-3.42A16,16,0,0,0,30,46a15.741,15.741,0,0,0,.49,3.85,17.641,17.641,0,0,1-4.67,1.74,1,1,0,0,0,.22,1.98,1.492,1.492,0,0,0,.21-.02,19.98,19.98,0,0,0,4.85-1.76A15.994,15.994,0,1,0,46,30Zm0,30A14,14,0,1,1,60,46,14.015,14.015,0,0,1,46,60Z" fill="#ffffff" data-original="#000000" style="" class=""/><path d="M51,40V37a3.009,3.009,0,0,0-3-3H44a3.009,3.009,0,0,0-3,3v3a3.009,3.009,0,0,0-3,3V53a3.009,3.009,0,0,0,3,3H51a3.009,3.009,0,0,0,3-3V43A3.009,3.009,0,0,0,51,40Zm-8-3a1,1,0,0,1,1-1h4a1,1,0,0,1,1,1v3H43Zm9,16a1,1,0,0,1-1,1H41a1,1,0,0,1-1-1V43a1,1,0,0,1,1-1H51a1,1,0,0,1,1,1Z" fill="#ffffff" data-original="#000000" style="" class=""/><path d="M46,44a2.993,2.993,0,0,0-1,5.816V52h2V49.816A2.993,2.993,0,0,0,46,44Zm0,4a1,1,0,1,1,1-1A1,1,0,0,1,46,48Z" fill="#ffffff" data-original="#000000" style="" class=""/></g></g></svg>
